<svg width="163" height="41" viewBox="0 0 163 41" fill="none" xmlns="http://www.w3.org/2000/svg">
<path d="M23.9585 5.66031C23.9221 5.57896 23.863 5.50994 23.7882 5.46167C23.7134 5.41339 23.6262 5.38795 23.5373 5.38843H10.4995C10.4212 5.38857 10.3441 5.40837 10.2755 5.44605C10.2068 5.48372 10.1486 5.53805 10.1064 5.60406L0.0822939 21.5416C0.0340351 21.6109 0.00583936 21.6923 0.000813382 21.7768C-0.00421259 21.8612 0.0141262 21.9454 0.0538094 22.02C0.0934926 22.0947 0.15298 22.1569 0.225715 22.1998C0.298451 22.2428 0.381612 22.2648 0.466035 22.2634H7.6448L1.30839 34.6853C1.27201 34.7592 1.25491 34.8411 1.25869 34.9234C1.26247 35.0056 1.287 35.0856 1.33 35.1558C1.37299 35.2261 1.43305 35.2842 1.50456 35.3249C1.57607 35.3656 1.6567 35.3874 1.73893 35.3884H4.54679C4.61175 35.3889 4.67608 35.3757 4.7357 35.3499C4.79532 35.3241 4.84892 35.2861 4.89309 35.2384L21.3378 17.4353C21.4031 17.3687 21.447 17.284 21.4639 17.1922C21.4809 17.1003 21.47 17.0055 21.4328 16.9199C21.3956 16.8343 21.3337 16.7618 21.2551 16.7116C21.1765 16.6615 21.0847 16.636 20.9915 16.6384H14.6832L23.8836 6.15718C23.9429 6.0906 23.9816 6.00815 23.9949 5.91991C24.0082 5.83167 23.9955 5.74146 23.9585 5.66031Z" fill="#2B788B"/>
<path d="M55.28 17.5484C57.3867 17.5484 59.3067 17.9884 61.04 18.8684C62.7733 19.7218 64.1333 20.8818 65.12 22.3484C66.1333 23.8151 66.64 25.3884 66.64 27.0684C66.64 29.2551 65.9467 31.1618 64.56 32.7884C63.1733 34.4151 61.2933 35.6551 58.92 36.5084C56.5467 37.3618 53.8933 37.7884 50.96 37.7884C47.9733 37.7884 45.3067 37.2018 42.96 36.0284C40.64 34.8284 38.8267 33.1751 37.52 31.0684C36.24 28.9618 35.6 26.5618 35.6 23.8684C35.6 18.5084 37.08 14.5218 40.04 11.9084C43.0267 9.26843 47.04 7.94843 52.08 7.94843C58.2133 7.94843 63.0533 9.49509 66.6 12.5884C65 14.2951 63.5333 16.1751 62.2 18.2284C61.1333 17.4284 59.6267 16.7884 57.68 16.3084C55.76 15.8018 54.04 15.5484 52.52 15.5484C50.2 15.5484 48.2533 16.1351 46.68 17.3084C45.1067 18.4551 44.1467 20.1084 43.8 22.2684C43.7733 22.4018 43.76 22.5884 43.76 22.8284C45.04 20.9618 46.72 19.6151 48.8 18.7884C50.9067 17.9618 53.0667 17.5484 55.28 17.5484ZM51.36 30.1884C52.3733 30.1884 53.32 30.0551 54.2 29.7884C55.08 29.4951 55.7733 29.1084 56.28 28.6284C56.7867 28.1218 57.04 27.5884 57.04 27.0284C57.04 26.1484 56.48 25.4018 55.36 24.7884C54.2667 24.1484 52.9333 23.8284 51.36 23.8284C49.7867 23.8284 48.44 24.1484 47.32 24.7884C46.2267 25.4018 45.68 26.1484 45.68 27.0284C45.68 27.5884 45.9333 28.1218 46.44 28.6284C46.9467 29.1084 47.64 29.4951 48.52 29.7884C49.4 30.0551 50.3467 30.1884 51.36 30.1884ZM85.8178 37.7884C80.0845 37.7884 75.8578 36.4684 73.1378 33.8284C70.4178 31.1884 69.0578 27.5218 69.0578 22.8284C69.0578 18.1618 70.4178 14.5218 73.1378 11.9084C75.8845 9.26843 80.1111 7.94843 85.8178 7.94843C91.5245 7.94843 95.7378 9.26843 98.4578 11.9084C101.178 14.5218 102.538 18.1618 102.538 22.8284C102.538 27.5218 101.178 31.1884 98.4578 33.8284C95.7378 36.4684 91.5245 37.7884 85.8178 37.7884ZM85.8578 30.7884C88.3111 30.7884 90.0978 30.0418 91.2178 28.5484C92.3378 27.0284 92.8978 25.1218 92.8978 22.8284C92.8978 20.5618 92.3378 18.6818 91.2178 17.1884C90.0978 15.6684 88.3111 14.9084 85.8578 14.9084C83.3245 14.9084 81.4845 15.6684 80.3378 17.1884C79.2178 18.6818 78.6578 20.5618 78.6578 22.8284C78.6578 25.0951 79.2178 26.9884 80.3378 28.5084C81.4845 30.0284 83.3245 30.7884 85.8578 30.7884ZM121.698 37.7884C115.964 37.7884 111.738 36.4684 109.018 33.8284C106.298 31.1884 104.938 27.5218 104.938 22.8284C104.938 18.1618 106.298 14.5218 109.018 11.9084C111.764 9.26843 115.991 7.94843 121.698 7.94843C127.404 7.94843 131.618 9.26843 134.338 11.9084C137.058 14.5218 138.418 18.1618 138.418 22.8284C138.418 27.5218 137.058 31.1884 134.338 33.8284C131.618 36.4684 127.404 37.7884 121.698 37.7884ZM121.738 30.7884C124.191 30.7884 125.978 30.0418 127.098 28.5484C128.218 27.0284 128.778 25.1218 128.778 22.8284C128.778 20.5618 128.218 18.6818 127.098 17.1884C125.978 15.6684 124.191 14.9084 121.738 14.9084C119.204 14.9084 117.364 15.6684 116.218 17.1884C115.098 18.6818 114.538 20.5618 114.538 22.8284C114.538 25.0951 115.098 26.9884 116.218 28.5084C117.364 30.0284 119.204 30.7884 121.738 30.7884Z" fill="black"/>
<path d="M154.577 19.8684H161.697V27.6684H154.577V34.8284H146.777V27.6684H139.617V19.8684H146.777V12.7084H154.577V19.8684Z" fill="#2B788B"/>
</svg>
