<svg width="91" height="41" viewBox="0 0 91 41" fill="none" xmlns="http://www.w3.org/2000/svg">
<path d="M3.50598 8.61157C3.50598 7.78657 3.79948 7.08057 4.38648 6.49357C4.97448 5.90557 5.68098 5.61157 6.50598 5.61157L18.506 5.61157C19.331 5.61157 20.037 5.90557 20.624 6.49357C21.212 7.08057 21.506 7.78657 21.506 8.61157L21.506 32.6116C21.506 33.4366 21.212 34.1431 20.624 34.7311C20.037 35.3181 19.331 35.6116 18.506 35.6116L6.50598 35.6116C5.68098 35.6116 4.97448 35.3181 4.38648 34.7311C3.79948 34.1431 3.50598 33.4366 3.50598 32.6116L3.50598 8.61157ZM8.00598 14.6116C8.00598 15.0366 8.14998 15.3931 8.43798 15.6811C8.72498 15.9681 9.08098 16.1116 9.50598 16.1116L11.006 16.1116L11.006 17.6116C11.006 18.0366 11.15 18.3931 11.438 18.6811C11.725 18.9681 12.081 19.1116 12.506 19.1116C12.931 19.1116 13.2875 18.9681 13.5755 18.6811C13.8625 18.3931 14.006 18.0366 14.006 17.6116L14.006 16.1116L15.506 16.1116C15.931 16.1116 16.2875 15.9681 16.5755 15.6811C16.8625 15.3931 17.006 15.0366 17.006 14.6116C17.006 14.1866 16.8625 13.8301 16.5755 13.5421C16.2875 13.2551 15.931 13.1116 15.506 13.1116L14.006 13.1116L14.006 11.6116C14.006 11.1866 13.8625 10.8301 13.5755 10.5421C13.2875 10.2551 12.931 10.1116 12.506 10.1116C12.081 10.1116 11.725 10.2551 11.438 10.5421C11.15 10.8301 11.006 11.1866 11.006 11.6116L11.006 13.1116L9.50598 13.1116C9.08098 13.1116 8.72498 13.2551 8.43798 13.5421C8.14998 13.8301 8.00598 14.1866 8.00598 14.6116ZM8.00598 24.3616C8.00598 24.9866 8.22498 25.5176 8.66298 25.9546C9.09998 26.3926 9.63098 26.6116 10.256 26.6116C10.881 26.6116 11.412 26.3926 11.849 25.9546C12.287 25.5176 12.506 24.9866 12.506 24.3616C12.506 23.7366 12.287 23.2056 11.849 22.7686C11.412 22.3306 10.881 22.1116 10.256 22.1116C9.63098 22.1116 9.09998 22.3306 8.66298 22.7686C8.22498 23.2056 8.00598 23.7366 8.00598 24.3616ZM12.506 28.8616C12.506 29.4866 12.725 30.0176 13.163 30.4546C13.6 30.8926 14.131 31.1116 14.756 31.1116C15.381 31.1116 15.912 30.8926 16.349 30.4546C16.787 30.0176 17.006 29.4866 17.006 28.8616C17.006 28.2366 16.787 27.7056 16.349 27.2686C15.912 26.8306 15.381 26.6116 14.756 26.6116C14.131 26.6116 13.6 26.8306 13.163 27.2686C12.725 27.7056 12.506 28.2366 12.506 28.8616Z" fill="#2B788B"/>
<path d="M46.1936 30.3884C54.8603 29.9084 61.5803 29.3751 66.3536 28.7884C65.9003 30.1751 65.5536 31.6418 65.3136 33.1884C65.0736 34.7351 64.9536 36.1351 64.9536 37.3884H36.3536L36.3136 36.5484C36.3136 33.9351 37.0736 31.6684 38.5936 29.7484C40.1403 27.8284 42.2869 26.0551 45.0336 24.4284C45.8336 23.9484 47.0869 23.3351 48.7936 22.5884C51.0069 21.6284 52.7136 20.7884 53.9136 20.0684C55.1136 19.3218 55.7136 18.5884 55.7136 17.8684C55.7136 16.9618 55.3403 16.2418 54.5936 15.7084C53.8469 15.1751 52.6869 14.9084 51.1136 14.9084C49.3803 14.9084 48.0603 15.3484 47.1536 16.2284C46.2736 17.1084 45.8336 18.2284 45.8336 19.5884C45.8336 20.0151 45.8736 20.4551 45.9536 20.9084C42.5936 20.4818 39.3269 20.1884 36.1536 20.0284C36.1536 17.7618 36.7403 15.7218 37.9136 13.9084C39.1136 12.0684 40.9003 10.6151 43.2736 9.54843C45.6736 8.48176 48.6069 7.94843 52.0736 7.94843C55.2469 7.94843 57.8869 8.38843 59.9936 9.26843C62.1269 10.1218 63.6869 11.2151 64.6736 12.5484C65.6869 13.8551 66.1936 15.2018 66.1936 16.5884C66.1936 18.1884 65.8336 19.5618 65.1136 20.7084C64.4203 21.8551 63.4069 22.8818 62.0736 23.7884C60.7669 24.6684 59.0069 25.6284 56.7936 26.6684C56.4736 26.8284 55.9536 27.0151 55.2336 27.2284C54.5136 27.4151 54.0603 27.5351 53.8736 27.5884C51.9803 28.1484 50.4736 28.6151 49.3536 28.9884C48.2336 29.3618 47.1803 29.8284 46.1936 30.3884Z" fill="black"/>
<path d="M82.512 19.8684H89.632V27.6684H82.512V34.8284H74.712V27.6684H67.552V19.8684H74.712V12.7084H82.512V19.8684Z" fill="#2B788B"/>
</svg>
